<?xml version="1.0" standalone="no"?>
<!DOCTYPE svg PUBLIC "-//W3C//DTD SVG 20010904//EN"
 "http://www.w3.org/TR/2001/REC-SVG-20010904/DTD/svg10.dtd">
<svg version="1.0" xmlns="http://www.w3.org/2000/svg"
 width="3250.000000pt" height="3250.000000pt" viewBox="0 0 3250.000000 3250.000000"
 preserveAspectRatio="xMidYMid meet">

<g transform="translate(0.000000,3250.000000) scale(0.100000,-0.100000)"
fill="#000000" stroke="none">
<path d="M15925 23993 c-1545 -74 -2963 -564 -4200 -1452 -585 -420 -1153
-968 -1601 -1546 -872 -1124 -1414 -2456 -1573 -3865 -38 -336 -46 -487 -45
-895 1 -416 12 -607 55 -955 277 -2230 1522 -4235 3407 -5489 1475 -981 3242
-1423 5022 -1256 1649 155 3204 840 4450 1960 156 140 475 462 610 615 1568
1773 2237 4132 1834 6470 -218 1268 -755 2467 -1562 3485 -349 440 -799 891
-1240 1243 -871 695 -1886 1197 -2957 1463 -622 154 -1276 232 -1910 227 -126
-1 -257 -3 -290 -5z m920 -2578 c1017 -119 1988 -643 2601 -1403 191 -237 375
-553 478 -820 215 -554 232 -1232 44 -1797 -166 -503 -501 -918 -1047 -1299
-113 -79 -294 -190 -776 -474 -378 -223 -549 -376 -616 -553 -14 -35 -24 -95
-29 -172 -7 -99 -13 -127 -38 -180 -38 -80 -100 -142 -182 -181 l-65 -31 -965
0 -965 0 -61 28 c-78 36 -154 113 -191 192 -25 55 -28 72 -31 204 -17 604 179
1103 593 1516 247 246 475 402 1090 750 459 259 626 370 779 515 132 126 210
254 242 398 24 110 15 292 -20 391 -133 376 -563 676 -1116 778 -143 27 -473
23 -634 -6 -460 -83 -795 -313 -1237 -851 -74 -90 -157 -191 -184 -224 -95
-115 -198 -162 -332 -154 -54 4 -87 12 -130 34 -32 16 -220 153 -418 303 -198
151 -449 342 -559 425 -109 83 -216 171 -237 195 -73 83 -103 211 -75 321 19
76 42 115 183 312 171 239 325 421 543 639 351 352 654 572 1053 764 507 244
989 358 1692 399 120 7 483 -4 610 -19z m-319 -7756 c135 -26 253 -67 382
-134 398 -207 673 -579 757 -1025 25 -130 25 -370 0 -500 -55 -293 -193 -555
-401 -764 -205 -207 -471 -346 -764 -401 -66 -13 -143 -18 -250 -18 -244 0
-449 49 -657 157 -400 209 -674 580 -758 1026 -25 130 -25 370 0 500 55 293
194 559 401 764 241 240 550 385 899 420 81 8 289 -5 391 -25z"/>
</g>
</svg>
