<?xml version="1.0" standalone="no"?>
<!DOCTYPE svg PUBLIC "-//W3C//DTD SVG 20010904//EN"
 "http://www.w3.org/TR/2001/REC-SVG-20010904/DTD/svg10.dtd">
<svg version="1.0" xmlns="http://www.w3.org/2000/svg"
 width="3250.000000pt" height="3250.000000pt" viewBox="0 0 3250.000000 3250.000000"
 preserveAspectRatio="xMidYMid meet">

<g transform="translate(0.000000,3250.000000) scale(0.100000,-0.100000)"
fill="#000000" stroke="none">
<path d="M6200 24243 c-752 -40 -1426 -185 -2090 -448 -2070 -820 -3572 -2633
-3994 -4820 -81 -420 -110 -743 -110 -1225 0 -482 29 -805 110 -1225 481
-2491 2363 -4477 4819 -5084 349 -86 667 -138 1065 -173 219 -19 830 -16 1060
5 979 92 1848 364 2675 838 159 91 411 252 535 342 l65 47 2025 -2023 c1355
-1354 2044 -2036 2083 -2061 278 -180 618 -215 922 -97 602 233 821 973 447
1511 -28 42 -767 788 -2053 2075 l-2008 2010 88 128 c575 826 951 1781 1095
2787 47 327 60 517 60 910 1 356 -7 504 -40 780 -209 1764 -1126 3353 -2556
4431 -1023 771 -2253 1218 -3543 1289 -172 9 -514 11 -655 3z m735 -2013
c1246 -134 2319 -719 3090 -1685 452 -565 768 -1260 900 -1980 55 -296 69
-463 69 -815 0 -352 -14 -519 -69 -815 -156 -846 -545 -1616 -1142 -2260 -575
-620 -1363 -1085 -2183 -1288 -1031 -256 -2103 -148 -3046 308 -920 444 -1642
1160 -2093 2075 -612 1242 -614 2712 -5 3951 108 220 154 300 300 519 340 514
762 933 1279 1272 640 420 1371 669 2140 727 147 12 623 6 760 -9z"/>
<path d="M20005 24239 c-401 -35 -825 -164 -1180 -360 -883 -488 -1460 -1378
-1545 -2384 -14 -166 -14 -10324 0 -10490 90 -1063 726 -1990 1685 -2455 284
-138 566 -223 916 -277 107 -16 418 -18 5289 -20 5664 -4 5248 -8 5429 53 302
101 553 372 638 691 23 86 26 117 26 253 0 135 -3 167 -26 252 -110 413 -463
709 -888 744 l-79 7 0 997 0 997 79 7 c425 35 774 327 889 744 l27 97 0 5155
0 5155 -27 98 c-89 322 -337 590 -639 691 -180 60 230 56 -5373 55 -2816 -1
-5166 -6 -5221 -10z m7880 -4004 c97 -25 164 -64 235 -134 200 -201 200 -501
0 -701 -71 -71 -141 -111 -236 -135 -53 -13 -399 -15 -3140 -13 l-3079 3 -71
28 c-133 53 -249 171 -294 299 -96 280 62 574 352 652 45 13 498 15 3113 15
2717 1 3068 -1 3120 -14z m0 -2000 c97 -25 164 -64 235 -134 200 -201 200
-501 0 -701 -71 -71 -141 -111 -236 -135 -53 -13 -399 -15 -3140 -13 l-3079 3
-71 28 c-133 53 -249 171 -294 299 -96 280 62 574 352 652 45 13 498 15 3113
15 2717 1 3068 -1 3120 -14z m385 -6985 l0 -1000 -4077 2 -4078 3 -96 26
c-356 99 -622 365 -716 717 -23 85 -26 117 -26 252 0 135 3 167 25 251 91 337
354 612 676 705 149 44 -5 42 4245 43 l4047 1 0 -1000z"/>
</g>
</svg>
