<?xml version="1.0" standalone="no"?>
<!DOCTYPE svg PUBLIC "-//W3C//DTD SVG 20010904//EN"
 "http://www.w3.org/TR/2001/REC-SVG-20010904/DTD/svg10.dtd">
<svg version="1.0" xmlns="http://www.w3.org/2000/svg"
 width="3250.000000pt" height="3250.000000pt" viewBox="0 0 3250.000000 3250.000000"
 preserveAspectRatio="xMidYMid meet">

<g transform="translate(0.000000,3250.000000) scale(0.100000,-0.100000)"
fill="#000000" stroke="none">
<path d="M28800 24240 c-390 -48 -762 -207 -1055 -452 -49 -41 -441 -426 -870
-856 l-781 -781 2028 -2028 2028 -2028 791 790 c435 435 820 826 855 870 228
280 367 591 431 960 23 139 23 471 0 610 -63 363 -203 680 -418 944 -43 53
-392 411 -776 797 -749 752 -793 792 -1022 923 -192 110 -429 194 -666 237
-106 19 -434 27 -545 14z"/>
<path d="M7000 22984 c-801 -109 -1417 -741 -1510 -1549 -45 -394 61 -822 287
-1157 438 -651 1252 -934 1993 -692 294 96 571 278 770 507 585 669 585 1645
0 2314 -378 434 -967 654 -1540 577z"/>
<path d="M21664 17718 c-4009 -4011 -3780 -3777 -3953 -4053 -72 -114 -182
-336 -235 -473 -41 -105 -1168 -3927 -1191 -4039 -48 -233 28 -481 202 -657
187 -189 456 -267 708 -207 115 28 3833 1124 3936 1160 287 102 560 253 809
450 75 60 1165 1143 3805 3782 l3700 3699 -2030 2030 -2030 2030 -3721 -3722z
m4207 1538 c265 -56 442 -323 387 -579 -37 -169 165 44 -2372 -2495 -1265
-1266 -2322 -2316 -2347 -2332 -83 -54 -152 -73 -269 -73 -90 -1 -115 3 -173
26 -165 64 -271 186 -312 359 -27 115 -12 223 46 341 28 56 260 292 2337 2369
2103 2102 2313 2309 2371 2338 113 56 216 70 332 46z m-6101 -6518 c0 -431 3
-534 15 -587 37 -156 146 -281 305 -352 l55 -24 558 -3 c426 -2 557 -6 557
-15 0 -6 -62 -167 -137 -356 l-138 -344 -70 -47 c-85 -57 -186 -109 -280 -143
-100 -35 -2496 -739 -2501 -734 -2 2 162 569 366 1260 248 843 382 1283 408
1339 40 86 120 216 149 239 17 15 679 287 701 288 9 1 12 -110 12 -521z"/>
<path d="M7000 17984 c-801 -109 -1417 -741 -1510 -1549 -45 -394 61 -822 287
-1157 438 -651 1252 -934 1993 -692 294 96 571 278 770 507 585 669 585 1645
0 2314 -378 434 -967 654 -1540 577z"/>
<path d="M7000 12984 c-801 -109 -1417 -741 -1510 -1549 -45 -394 61 -822 287
-1157 438 -651 1252 -934 1993 -692 294 96 571 278 770 507 585 669 585 1645
0 2314 -378 434 -967 654 -1540 577z"/>
</g>
</svg>
