<svg width="1065" height="808" viewBox="0 0 1065 808" fill="none" xmlns="http://www.w3.org/2000/svg">
<g clip-path="url(#clip0_20_167)" filter="url(#filter0_d_20_167)">
<rect width="975" height="718" transform="translate(45 30)" fill="#F8F9FA"/>
<rect x="45" y="30" width="975" height="110" fill="#202124"/>
<rect x="45" y="140" width="975" height="1" fill="#DADCE0"/>
<rect x="45" y="105" width="975" height="35" fill="#35363A"/>
<g clip-path="url(#clip1_20_167)">
<rect x="126" y="114" width="16" height="16" fill="white"/>
<path d="M148.99 126V117.469H151.779C152.705 117.469 153.4 117.66 153.865 118.043C154.334 118.426 154.568 118.992 154.568 119.742C154.568 120.141 154.455 120.494 154.229 120.803C154.002 121.107 153.693 121.344 153.303 121.512C153.764 121.641 154.127 121.887 154.393 122.25C154.662 122.609 154.797 123.039 154.797 123.539C154.797 124.305 154.549 124.906 154.053 125.344C153.557 125.781 152.855 126 151.949 126H148.99ZM150.115 122.01V125.08H151.973C152.496 125.08 152.908 124.945 153.209 124.676C153.514 124.402 153.666 124.027 153.666 123.551C153.666 122.523 153.107 122.01 151.99 122.01H150.115ZM150.115 121.107H151.814C152.307 121.107 152.699 120.984 152.992 120.738C153.289 120.492 153.438 120.158 153.438 119.736C153.438 119.268 153.301 118.928 153.027 118.717C152.754 118.502 152.338 118.395 151.779 118.395H150.115V121.107ZM156.01 122.771C156.01 122.15 156.131 121.592 156.373 121.096C156.619 120.6 156.959 120.217 157.393 119.947C157.83 119.678 158.328 119.543 158.887 119.543C159.75 119.543 160.447 119.842 160.979 120.439C161.514 121.037 161.781 121.832 161.781 122.824V122.9C161.781 123.518 161.662 124.072 161.424 124.564C161.189 125.053 160.852 125.434 160.41 125.707C159.973 125.98 159.469 126.117 158.898 126.117C158.039 126.117 157.342 125.818 156.807 125.221C156.275 124.623 156.01 123.832 156.01 122.848V122.771ZM157.1 122.9C157.1 123.604 157.262 124.168 157.586 124.594C157.914 125.02 158.352 125.232 158.898 125.232C159.449 125.232 159.887 125.018 160.211 124.588C160.535 124.154 160.697 123.549 160.697 122.771C160.697 122.076 160.531 121.514 160.199 121.084C159.871 120.65 159.434 120.434 158.887 120.434C158.352 120.434 157.92 120.646 157.592 121.072C157.264 121.498 157.1 122.107 157.1 122.9ZM162.854 122.771C162.854 122.15 162.975 121.592 163.217 121.096C163.463 120.6 163.803 120.217 164.236 119.947C164.674 119.678 165.172 119.543 165.73 119.543C166.594 119.543 167.291 119.842 167.822 120.439C168.357 121.037 168.625 121.832 168.625 122.824V122.9C168.625 123.518 168.506 124.072 168.268 124.564C168.033 125.053 167.695 125.434 167.254 125.707C166.816 125.98 166.312 126.117 165.742 126.117C164.883 126.117 164.186 125.818 163.65 125.221C163.119 124.623 162.854 123.832 162.854 122.848V122.771ZM163.943 122.9C163.943 123.604 164.105 124.168 164.43 124.594C164.758 125.02 165.195 125.232 165.742 125.232C166.293 125.232 166.73 125.018 167.055 124.588C167.379 124.154 167.541 123.549 167.541 122.771C167.541 122.076 167.375 121.514 167.043 121.084C166.715 120.65 166.277 120.434 165.73 120.434C165.195 120.434 164.764 120.646 164.436 121.072C164.107 121.498 163.943 122.107 163.943 122.9ZM171.754 123.064L171.074 123.773V126H169.99V117H171.074V122.443L171.654 121.746L173.629 119.66H174.947L172.48 122.309L175.234 126H173.963L171.754 123.064ZM177.086 119.66L177.115 120.363C177.58 119.816 178.207 119.543 178.996 119.543C179.883 119.543 180.486 119.883 180.807 120.562C181.018 120.258 181.291 120.012 181.627 119.824C181.967 119.637 182.367 119.543 182.828 119.543C184.219 119.543 184.926 120.279 184.949 121.752V126H183.865V121.816C183.865 121.363 183.762 121.025 183.555 120.803C183.348 120.576 183 120.463 182.512 120.463C182.109 120.463 181.775 120.584 181.51 120.826C181.244 121.064 181.09 121.387 181.047 121.793V126H179.957V121.846C179.957 120.924 179.506 120.463 178.604 120.463C177.893 120.463 177.406 120.766 177.145 121.371V126H176.061V119.66H177.086ZM190.504 126C190.441 125.875 190.391 125.652 190.352 125.332C189.848 125.855 189.246 126.117 188.547 126.117C187.922 126.117 187.408 125.941 187.006 125.59C186.607 125.234 186.408 124.785 186.408 124.242C186.408 123.582 186.658 123.07 187.158 122.707C187.662 122.34 188.369 122.156 189.279 122.156H190.334V121.658C190.334 121.279 190.221 120.979 189.994 120.756C189.768 120.529 189.434 120.416 188.992 120.416C188.605 120.416 188.281 120.514 188.02 120.709C187.758 120.904 187.627 121.141 187.627 121.418H186.537C186.537 121.102 186.648 120.797 186.871 120.504C187.098 120.207 187.402 119.973 187.785 119.801C188.172 119.629 188.596 119.543 189.057 119.543C189.787 119.543 190.359 119.727 190.773 120.094C191.188 120.457 191.402 120.959 191.418 121.6V124.518C191.418 125.1 191.492 125.562 191.641 125.906V126H190.504ZM188.705 125.174C189.045 125.174 189.367 125.086 189.672 124.91C189.977 124.734 190.197 124.506 190.334 124.225V122.924H189.484C188.156 122.924 187.492 123.312 187.492 124.09C187.492 124.43 187.605 124.695 187.832 124.887C188.059 125.078 188.35 125.174 188.705 125.174ZM196.182 120.633C196.018 120.605 195.84 120.592 195.648 120.592C194.938 120.592 194.455 120.895 194.201 121.5V126H193.117V119.66H194.172L194.189 120.393C194.545 119.826 195.049 119.543 195.701 119.543C195.912 119.543 196.072 119.57 196.182 119.625V120.633ZM198.953 123.064L198.273 123.773V126H197.189V117H198.273V122.443L198.854 121.746L200.828 119.66H202.146L199.68 122.309L202.434 126H201.162L198.953 123.064Z" fill="white"/>
</g>
<rect x="61" y="115" width="3" height="3" fill="#E44A3E"/>
<rect x="61" y="120" width="3" height="3" fill="#529A60"/>
<rect x="61" y="125" width="3" height="3" fill="#529A60"/>
<rect x="66" y="115" width="3" height="3" fill="#E44A3E"/>
<rect x="66" y="120" width="3" height="3" fill="#3F8CEC"/>
<rect x="66" y="125" width="3" height="3" fill="#E6A439"/>
<rect x="71" y="115" width="3" height="3" fill="#E44A3E"/>
<rect x="71" y="120" width="3" height="3" fill="#E6A439"/>
<rect x="71" y="125" width="3" height="3" fill="#E6A439"/>
<path d="M88.7012 123.773H85.127L84.3242 126H83.1641L86.4219 117.469H87.4062L90.6699 126H89.5156L88.7012 123.773ZM85.4668 122.848H88.3672L86.9141 118.857L85.4668 122.848ZM97.0039 122.9C97.0039 123.865 96.7832 124.643 96.3418 125.232C95.9004 125.822 95.3027 126.117 94.5488 126.117C93.7793 126.117 93.1738 125.873 92.7324 125.385V128.438H91.6484V119.66H92.6387L92.6914 120.363C93.1328 119.816 93.7461 119.543 94.5312 119.543C95.293 119.543 95.8945 119.83 96.3359 120.404C96.7812 120.979 97.0039 121.777 97.0039 122.801V122.9ZM95.9199 122.777C95.9199 122.062 95.7676 121.498 95.4629 121.084C95.1582 120.67 94.7402 120.463 94.209 120.463C93.5527 120.463 93.0605 120.754 92.7324 121.336V124.365C93.0566 124.943 93.5527 125.232 94.2207 125.232C94.7402 125.232 95.1523 125.027 95.457 124.617C95.7656 124.203 95.9199 123.59 95.9199 122.777ZM103.742 122.9C103.742 123.865 103.521 124.643 103.08 125.232C102.639 125.822 102.041 126.117 101.287 126.117C100.518 126.117 99.9121 125.873 99.4707 125.385V128.438H98.3867V119.66H99.377L99.4297 120.363C99.8711 119.816 100.484 119.543 101.27 119.543C102.031 119.543 102.633 119.83 103.074 120.404C103.52 120.979 103.742 121.777 103.742 122.801V122.9ZM102.658 122.777C102.658 122.062 102.506 121.498 102.201 121.084C101.896 120.67 101.479 120.463 100.947 120.463C100.291 120.463 99.7988 120.754 99.4707 121.336V124.365C99.7949 124.943 100.291 125.232 100.959 125.232C101.479 125.232 101.891 125.027 102.195 124.617C102.504 124.203 102.658 123.59 102.658 122.777ZM108.816 124.318C108.816 124.025 108.705 123.799 108.482 123.639C108.264 123.475 107.879 123.334 107.328 123.217C106.781 123.1 106.346 122.959 106.021 122.795C105.701 122.631 105.463 122.436 105.307 122.209C105.154 121.982 105.078 121.713 105.078 121.4C105.078 120.881 105.297 120.441 105.734 120.082C106.176 119.723 106.738 119.543 107.422 119.543C108.141 119.543 108.723 119.729 109.168 120.1C109.617 120.471 109.842 120.945 109.842 121.523H108.752C108.752 121.227 108.625 120.971 108.371 120.756C108.121 120.541 107.805 120.434 107.422 120.434C107.027 120.434 106.719 120.52 106.496 120.691C106.273 120.863 106.162 121.088 106.162 121.365C106.162 121.627 106.266 121.824 106.473 121.957C106.68 122.09 107.053 122.217 107.592 122.338C108.135 122.459 108.574 122.604 108.91 122.771C109.246 122.939 109.494 123.143 109.654 123.381C109.818 123.615 109.9 123.902 109.9 124.242C109.9 124.809 109.674 125.264 109.221 125.607C108.768 125.947 108.18 126.117 107.457 126.117C106.949 126.117 106.5 126.027 106.109 125.848C105.719 125.668 105.412 125.418 105.189 125.098C104.971 124.773 104.861 124.424 104.861 124.049H105.945C105.965 124.412 106.109 124.701 106.379 124.916C106.652 125.127 107.012 125.232 107.457 125.232C107.867 125.232 108.195 125.15 108.441 124.986C108.691 124.818 108.816 124.596 108.816 124.318Z" fill="white"/>
<rect x="45" y="70" width="975" height="35" fill="#35363A"/>
<path d="M944 80V96" stroke="#CFD0D1"/>
<circle cx="998.25" cy="83.25" r="1.25" fill="#606368"/>
<circle cx="998.25" cy="88.25" r="1.25" fill="#606368"/>
<circle cx="998.25" cy="93.25" r="1.25" fill="#606368"/>
<circle cx="967" cy="88" r="10" fill="#C4C4C4" stroke="#B9B9B9" stroke-width="2"/>
<g clip-path="url(#clip2_20_167)">
<rect x="909" y="80" width="16" height="16" fill="white"/>
</g>
<path d="M133 86L135 84.0278L134.985 84.0147L137 82V86H133Z" fill="#F1F3F4"/>
<path d="M137 88.5C137 91.8137 134.314 94.5 131 94.5C127.686 94.5 125 91.8137 125 88.5C125 85.1863 127.686 82.5 131 82.5C132.53 82.5 133.926 83.0724 134.985 84.0147M134.985 84.0147C134.99 84.019 134.995 84.0234 135 84.0278L133 86H137V82L134.985 84.0147Z" stroke="#F1F3F4" stroke-width="1.5"/>
<path d="M73 88H61M61 88L66.5 82.5M61 88L66.5 93.5" stroke="#BEC1C6" stroke-width="1.5" stroke-linecap="round" stroke-linejoin="round"/>
<path d="M93 88L105 88M105 88L99.5 93.5M105 88L99.5 82.5" stroke="#86888A" stroke-width="1.5" stroke-linecap="round" stroke-linejoin="round"/>
<rect x="155" y="74" width="738" height="28" rx="14" fill="#202124"/>
<path d="M186.905 86.499C187.466 85.8109 188.195 85.4668 189.093 85.4668C190.656 85.4668 191.444 86.3486 191.458 88.1123V93H190.193V88.1055C190.189 87.5723 190.066 87.1781 189.824 86.9229C189.587 86.6676 189.216 86.54 188.71 86.54C188.3 86.54 187.94 86.6494 187.63 86.8682C187.32 87.0869 187.078 87.374 186.905 87.7295V93H185.641V82.5H186.905V86.499ZM195.067 83.8125V85.6035H196.448V86.5811H195.067V91.168C195.067 91.4642 195.129 91.6875 195.252 91.8379C195.375 91.9837 195.585 92.0566 195.881 92.0566C196.027 92.0566 196.227 92.0293 196.482 91.9746V93C196.15 93.0911 195.826 93.1367 195.512 93.1367C194.947 93.1367 194.521 92.9658 194.233 92.624C193.946 92.2822 193.803 91.7969 193.803 91.168V86.5811H192.456V85.6035H193.803V83.8125H195.067ZM199.647 83.8125V85.6035H201.028V86.5811H199.647V91.168C199.647 91.4642 199.709 91.6875 199.832 91.8379C199.955 91.9837 200.165 92.0566 200.461 92.0566C200.607 92.0566 200.807 92.0293 201.062 91.9746V93C200.73 93.0911 200.406 93.1367 200.092 93.1367C199.527 93.1367 199.101 92.9658 198.813 92.624C198.526 92.2822 198.383 91.7969 198.383 91.168V86.5811H197.036V85.6035H198.383V83.8125H199.647ZM208.76 89.3838C208.76 90.5094 208.502 91.4163 207.987 92.1045C207.472 92.7926 206.775 93.1367 205.896 93.1367C204.998 93.1367 204.291 92.8519 203.776 92.2822V95.8438H202.512V85.6035H203.667L203.729 86.4238C204.243 85.7858 204.959 85.4668 205.875 85.4668C206.764 85.4668 207.465 85.8018 207.98 86.4717C208.5 87.1416 208.76 88.0736 208.76 89.2676V89.3838ZM207.495 89.2402C207.495 88.4062 207.317 87.7477 206.962 87.2646C206.606 86.7816 206.119 86.54 205.499 86.54C204.733 86.54 204.159 86.8796 203.776 87.5586V91.0928C204.155 91.7673 204.733 92.1045 205.513 92.1045C206.119 92.1045 206.6 91.8652 206.955 91.3867C207.315 90.9036 207.495 90.1882 207.495 89.2402ZM214.68 91.0381C214.68 90.6963 214.55 90.432 214.29 90.2451C214.035 90.0537 213.586 89.8896 212.943 89.7529C212.305 89.6162 211.797 89.4521 211.419 89.2607C211.045 89.0693 210.767 88.8415 210.585 88.5771C210.407 88.3128 210.318 87.9984 210.318 87.6338C210.318 87.0277 210.574 86.515 211.084 86.0957C211.599 85.6764 212.255 85.4668 213.053 85.4668C213.891 85.4668 214.57 85.6833 215.09 86.1162C215.614 86.5492 215.876 87.1029 215.876 87.7773H214.604C214.604 87.431 214.456 87.1325 214.16 86.8818C213.868 86.6312 213.499 86.5059 213.053 86.5059C212.592 86.5059 212.232 86.6061 211.973 86.8066C211.713 87.0072 211.583 87.2692 211.583 87.5928C211.583 87.8981 211.704 88.1283 211.945 88.2832C212.187 88.4382 212.622 88.5863 213.251 88.7275C213.884 88.8688 214.397 89.0374 214.789 89.2334C215.181 89.4294 215.47 89.6663 215.657 89.9443C215.849 90.2178 215.944 90.5527 215.944 90.9492C215.944 91.61 215.68 92.141 215.151 92.542C214.623 92.9385 213.937 93.1367 213.094 93.1367C212.501 93.1367 211.977 93.0319 211.521 92.8223C211.066 92.6126 210.708 92.321 210.448 91.9473C210.193 91.569 210.065 91.1611 210.065 90.7236H211.33C211.353 91.1475 211.521 91.4847 211.836 91.7354C212.155 91.9814 212.574 92.1045 213.094 92.1045C213.572 92.1045 213.955 92.0088 214.242 91.8174C214.534 91.6214 214.68 91.3617 214.68 91.0381ZM217.551 92.3369C217.551 92.1182 217.615 91.9359 217.742 91.79C217.874 91.6442 218.07 91.5713 218.33 91.5713C218.59 91.5713 218.786 91.6442 218.918 91.79C219.055 91.9359 219.123 92.1182 219.123 92.3369C219.123 92.5465 219.055 92.722 218.918 92.8633C218.786 93.0046 218.59 93.0752 218.33 93.0752C218.07 93.0752 217.874 93.0046 217.742 92.8633C217.615 92.722 217.551 92.5465 217.551 92.3369ZM217.558 86.3008C217.558 86.082 217.621 85.8997 217.749 85.7539C217.881 85.6081 218.077 85.5352 218.337 85.5352C218.597 85.5352 218.793 85.6081 218.925 85.7539C219.062 85.8997 219.13 86.082 219.13 86.3008C219.13 86.5104 219.062 86.6859 218.925 86.8271C218.793 86.9684 218.597 87.0391 218.337 87.0391C218.077 87.0391 217.881 86.9684 217.749 86.8271C217.621 86.6859 217.558 86.5104 217.558 86.3008ZM221.235 93.8545H220.148L224.305 83.0469H225.385L221.235 93.8545ZM225.474 93.8545H224.387L228.543 83.0469H229.623L225.474 93.8545ZM237.539 91.2568L238.961 85.6035H240.226L238.072 93H237.047L235.249 87.3945L233.499 93H232.474L230.327 85.6035H231.585L233.041 91.1406L234.764 85.6035H235.782L237.539 91.2568ZM244.587 93.1367C243.584 93.1367 242.769 92.8086 242.14 92.1523C241.511 91.4915 241.196 90.6097 241.196 89.5068V89.2744C241.196 88.5407 241.335 87.8867 241.613 87.3125C241.896 86.7337 242.288 86.2826 242.789 85.959C243.295 85.6309 243.842 85.4668 244.43 85.4668C245.391 85.4668 246.139 85.7835 246.672 86.417C247.205 87.0505 247.472 87.9574 247.472 89.1377V89.6641H242.461C242.479 90.3932 242.691 90.9834 243.097 91.4346C243.507 91.8812 244.026 92.1045 244.655 92.1045C245.102 92.1045 245.48 92.0133 245.79 91.8311C246.1 91.6488 246.371 91.4072 246.604 91.1064L247.376 91.708C246.756 92.6605 245.826 93.1367 244.587 93.1367ZM244.43 86.5059C243.919 86.5059 243.491 86.6927 243.145 87.0664C242.798 87.4355 242.584 87.9551 242.502 88.625H246.207V88.5293C246.171 87.8867 245.997 87.39 245.688 87.0391C245.378 86.6836 244.958 86.5059 244.43 86.5059ZM255.203 89.3838C255.203 90.514 254.943 91.4232 254.424 92.1113C253.904 92.7949 253.207 93.1367 252.332 93.1367C251.398 93.1367 250.675 92.8063 250.165 92.1455L250.104 93H248.941V82.5H250.206V86.417C250.716 85.7835 251.421 85.4668 252.318 85.4668C253.216 85.4668 253.92 85.8063 254.431 86.4854C254.946 87.1644 255.203 88.0941 255.203 89.2744V89.3838ZM253.938 89.2402C253.938 88.3789 253.772 87.7135 253.439 87.2441C253.107 86.7747 252.628 86.54 252.004 86.54C251.17 86.54 250.571 86.9274 250.206 87.7021V90.9014C250.593 91.6761 251.197 92.0635 252.018 92.0635C252.624 92.0635 253.095 91.8288 253.433 91.3594C253.77 90.89 253.938 90.1836 253.938 89.2402ZM261.109 91.0381C261.109 90.6963 260.979 90.432 260.72 90.2451C260.465 90.0537 260.016 89.8896 259.373 89.7529C258.735 89.6162 258.227 89.4521 257.849 89.2607C257.475 89.0693 257.197 88.8415 257.015 88.5771C256.837 88.3128 256.748 87.9984 256.748 87.6338C256.748 87.0277 257.003 86.515 257.514 86.0957C258.029 85.6764 258.685 85.4668 259.482 85.4668C260.321 85.4668 261 85.6833 261.52 86.1162C262.044 86.5492 262.306 87.1029 262.306 87.7773H261.034C261.034 87.431 260.886 87.1325 260.59 86.8818C260.298 86.6312 259.929 86.5059 259.482 86.5059C259.022 86.5059 258.662 86.6061 258.402 86.8066C258.143 87.0072 258.013 87.2692 258.013 87.5928C258.013 87.8981 258.133 88.1283 258.375 88.2832C258.617 88.4382 259.052 88.5863 259.681 88.7275C260.314 88.8688 260.827 89.0374 261.219 89.2334C261.611 89.4294 261.9 89.6663 262.087 89.9443C262.278 90.2178 262.374 90.5527 262.374 90.9492C262.374 91.61 262.11 92.141 261.581 92.542C261.052 92.9385 260.367 93.1367 259.523 93.1367C258.931 93.1367 258.407 93.0319 257.951 92.8223C257.495 92.6126 257.138 92.321 256.878 91.9473C256.623 91.569 256.495 91.1611 256.495 90.7236H257.76C257.783 91.1475 257.951 91.4847 258.266 91.7354C258.585 91.9814 259.004 92.1045 259.523 92.1045C260.002 92.1045 260.385 92.0088 260.672 91.8174C260.964 91.6214 261.109 91.3617 261.109 91.0381ZM265.396 93H264.131V85.6035H265.396V93ZM264.028 83.6416C264.028 83.4365 264.09 83.2633 264.213 83.1221C264.34 82.9808 264.527 82.9102 264.773 82.9102C265.02 82.9102 265.206 82.9808 265.334 83.1221C265.462 83.2633 265.525 83.4365 265.525 83.6416C265.525 83.8467 265.462 84.0176 265.334 84.1543C265.206 84.291 265.02 84.3594 264.773 84.3594C264.527 84.3594 264.34 84.291 264.213 84.1543C264.09 84.0176 264.028 83.8467 264.028 83.6416ZM269.142 83.8125V85.6035H270.522V86.5811H269.142V91.168C269.142 91.4642 269.203 91.6875 269.326 91.8379C269.449 91.9837 269.659 92.0566 269.955 92.0566C270.101 92.0566 270.301 92.0293 270.557 91.9746V93C270.224 93.0911 269.9 93.1367 269.586 93.1367C269.021 93.1367 268.595 92.9658 268.308 92.624C268.021 92.2822 267.877 91.7969 267.877 91.168V86.5811H266.53V85.6035H267.877V83.8125H269.142ZM275.075 93.1367C274.073 93.1367 273.257 92.8086 272.628 92.1523C271.999 91.4915 271.685 90.6097 271.685 89.5068V89.2744C271.685 88.5407 271.824 87.8867 272.102 87.3125C272.384 86.7337 272.776 86.2826 273.277 85.959C273.783 85.6309 274.33 85.4668 274.918 85.4668C275.88 85.4668 276.627 85.7835 277.16 86.417C277.693 87.0505 277.96 87.9574 277.96 89.1377V89.6641H272.949C272.967 90.3932 273.179 90.9834 273.585 91.4346C273.995 91.8812 274.515 92.1045 275.144 92.1045C275.59 92.1045 275.968 92.0133 276.278 91.8311C276.588 91.6488 276.859 91.4072 277.092 91.1064L277.864 91.708C277.244 92.6605 276.315 93.1367 275.075 93.1367ZM274.918 86.5059C274.408 86.5059 273.979 86.6927 273.633 87.0664C273.286 87.4355 273.072 87.9551 272.99 88.625H276.695V88.5293C276.659 87.8867 276.486 87.39 276.176 87.0391C275.866 86.6836 275.447 86.5059 274.918 86.5059ZM279.457 92.3369C279.457 92.1182 279.521 91.9359 279.648 91.79C279.781 91.6442 279.977 91.5713 280.236 91.5713C280.496 91.5713 280.692 91.6442 280.824 91.79C280.961 91.9359 281.029 92.1182 281.029 92.3369C281.029 92.5465 280.961 92.722 280.824 92.8633C280.692 93.0046 280.496 93.0752 280.236 93.0752C279.977 93.0752 279.781 93.0046 279.648 92.8633C279.521 92.722 279.457 92.5465 279.457 92.3369ZM286.088 92.1045C286.539 92.1045 286.933 91.9678 287.271 91.6943C287.608 91.4209 287.795 91.0791 287.831 90.6689H289.027C289.005 91.0928 288.859 91.4961 288.59 91.8789C288.321 92.2617 287.961 92.5671 287.51 92.7949C287.063 93.0228 286.589 93.1367 286.088 93.1367C285.081 93.1367 284.279 92.8018 283.682 92.1318C283.089 91.4574 282.793 90.5368 282.793 89.3701V89.1582C282.793 88.4382 282.925 87.7979 283.189 87.2373C283.454 86.6768 283.832 86.2415 284.324 85.9316C284.821 85.6217 285.407 85.4668 286.081 85.4668C286.91 85.4668 287.599 85.7152 288.146 86.2119C288.697 86.7087 288.991 87.3535 289.027 88.1465H287.831C287.795 87.668 287.612 87.276 287.284 86.9707C286.961 86.6608 286.56 86.5059 286.081 86.5059C285.438 86.5059 284.939 86.7383 284.584 87.2031C284.233 87.6634 284.058 88.3311 284.058 89.2061V89.4453C284.058 90.2975 284.233 90.9538 284.584 91.4141C284.935 91.8743 285.436 92.1045 286.088 92.1045ZM290.114 89.2334C290.114 88.5088 290.256 87.8571 290.538 87.2783C290.825 86.6995 291.222 86.2529 291.728 85.9385C292.238 85.624 292.819 85.4668 293.471 85.4668C294.478 85.4668 295.291 85.8154 295.911 86.5127C296.535 87.21 296.848 88.1374 296.848 89.2949V89.3838C296.848 90.1038 296.709 90.751 296.431 91.3252C296.157 91.8949 295.763 92.3392 295.248 92.6582C294.738 92.9772 294.15 93.1367 293.484 93.1367C292.482 93.1367 291.668 92.7881 291.044 92.0908C290.424 91.3936 290.114 90.4707 290.114 89.3223V89.2334ZM291.386 89.3838C291.386 90.2041 291.575 90.8626 291.953 91.3594C292.336 91.8561 292.846 92.1045 293.484 92.1045C294.127 92.1045 294.637 91.8538 295.016 91.3525C295.394 90.8467 295.583 90.1403 295.583 89.2334C295.583 88.4222 295.389 87.766 295.002 87.2646C294.619 86.7588 294.109 86.5059 293.471 86.5059C292.846 86.5059 292.343 86.7542 291.96 87.251C291.577 87.7477 291.386 88.4587 291.386 89.3838ZM299.623 85.6035L299.657 86.4238C300.2 85.7858 300.931 85.4668 301.852 85.4668C302.886 85.4668 303.59 85.8633 303.964 86.6562C304.21 86.3008 304.529 86.0137 304.921 85.7949C305.317 85.5762 305.785 85.4668 306.322 85.4668C307.945 85.4668 308.77 86.3258 308.797 88.0439V93H307.532V88.1191C307.532 87.5905 307.411 87.1963 307.17 86.9365C306.928 86.6722 306.523 86.54 305.953 86.54C305.484 86.54 305.094 86.6813 304.784 86.9639C304.474 87.2419 304.294 87.6178 304.244 88.0918V93H302.973V88.1533C302.973 87.0778 302.446 86.54 301.394 86.54C300.564 86.54 299.997 86.8932 299.691 87.5996V93H298.427V85.6035H299.623Z" fill="#F1F3F4"/>
<path d="M310.964 93.8545H309.877L314.033 83.0469H315.113L310.964 93.8545ZM321.047 93C320.974 92.8542 320.915 92.5944 320.869 92.2207C320.281 92.8314 319.579 93.1367 318.764 93.1367C318.035 93.1367 317.435 92.9316 316.966 92.5215C316.501 92.1068 316.269 91.5827 316.269 90.9492C316.269 90.179 316.56 89.582 317.144 89.1582C317.731 88.7298 318.556 88.5156 319.618 88.5156H320.849V87.9346C320.849 87.4925 320.716 87.1416 320.452 86.8818C320.188 86.6175 319.798 86.4854 319.283 86.4854C318.832 86.4854 318.454 86.5993 318.148 86.8271C317.843 87.055 317.69 87.3307 317.69 87.6543H316.419C316.419 87.2852 316.549 86.9297 316.809 86.5879C317.073 86.2415 317.428 85.9681 317.875 85.7676C318.326 85.5671 318.821 85.4668 319.358 85.4668C320.211 85.4668 320.878 85.681 321.361 86.1094C321.844 86.5332 322.095 87.1188 322.113 87.8662V91.2705C322.113 91.9495 322.2 92.4896 322.373 92.8906V93H321.047ZM318.948 92.0361C319.345 92.0361 319.721 91.9336 320.076 91.7285C320.432 91.5234 320.689 91.2568 320.849 90.9287V89.4111H319.857C318.308 89.4111 317.533 89.8646 317.533 90.7715C317.533 91.168 317.665 91.4779 317.93 91.7012C318.194 91.9245 318.534 92.0361 318.948 92.0361ZM330.357 89.3838C330.357 90.514 330.098 91.4232 329.578 92.1113C329.059 92.7949 328.361 93.1367 327.486 93.1367C326.552 93.1367 325.83 92.8063 325.319 92.1455L325.258 93H324.096V82.5H325.36V86.417C325.871 85.7835 326.575 85.4668 327.473 85.4668C328.37 85.4668 329.075 85.8063 329.585 86.4854C330.1 87.1644 330.357 88.0941 330.357 89.2744V89.3838ZM329.093 89.2402C329.093 88.3789 328.926 87.7135 328.594 87.2441C328.261 86.7747 327.783 86.54 327.158 86.54C326.324 86.54 325.725 86.9274 325.36 87.7021V90.9014C325.748 91.6761 326.352 92.0635 327.172 92.0635C327.778 92.0635 328.25 91.8288 328.587 91.3594C328.924 90.89 329.093 90.1836 329.093 89.2402ZM331.622 89.2334C331.622 88.5088 331.763 87.8571 332.046 87.2783C332.333 86.6995 332.729 86.2529 333.235 85.9385C333.746 85.624 334.327 85.4668 334.979 85.4668C335.986 85.4668 336.799 85.8154 337.419 86.5127C338.043 87.21 338.355 88.1374 338.355 89.2949V89.3838C338.355 90.1038 338.216 90.751 337.938 91.3252C337.665 91.8949 337.271 92.3392 336.756 92.6582C336.245 92.9772 335.658 93.1367 334.992 93.1367C333.99 93.1367 333.176 92.7881 332.552 92.0908C331.932 91.3936 331.622 90.4707 331.622 89.3223V89.2334ZM332.894 89.3838C332.894 90.2041 333.083 90.8626 333.461 91.3594C333.844 91.8561 334.354 92.1045 334.992 92.1045C335.635 92.1045 336.145 91.8538 336.523 91.3525C336.902 90.8467 337.091 90.1403 337.091 89.2334C337.091 88.4222 336.897 87.766 336.51 87.2646C336.127 86.7588 335.617 86.5059 334.979 86.5059C334.354 86.5059 333.851 86.7542 333.468 87.251C333.085 87.7477 332.894 88.4587 332.894 89.3838ZM344.508 92.2686C344.016 92.8473 343.293 93.1367 342.341 93.1367C341.552 93.1367 340.951 92.9089 340.536 92.4531C340.126 91.9928 339.919 91.3138 339.914 90.416V85.6035H341.179V90.3818C341.179 91.5029 341.634 92.0635 342.546 92.0635C343.512 92.0635 344.155 91.7035 344.474 90.9834V85.6035H345.738V93H344.535L344.508 92.2686ZM349.382 83.8125V85.6035H350.763V86.5811H349.382V91.168C349.382 91.4642 349.443 91.6875 349.566 91.8379C349.689 91.9837 349.899 92.0566 350.195 92.0566C350.341 92.0566 350.542 92.0293 350.797 91.9746V93C350.464 93.0911 350.141 93.1367 349.826 93.1367C349.261 93.1367 348.835 92.9658 348.548 92.624C348.261 92.2822 348.117 91.7969 348.117 91.168V86.5811H346.771V85.6035H348.117V83.8125H349.382Z" fill="#909192"/>
<path d="M873.001 85L874.54 81.5L876.078 85L880.693 85.5L877.616 88.5L878.129 93L874.54 90.5L870.95 93L871.463 88.5L868.386 85.5L873.001 85Z" stroke="#626365" stroke-width="1.5"/>
<path d="M169.911 86V84C169.911 84 169.911 82 171.899 82C173.887 82 173.887 84 173.887 84V86" stroke="#F1F3F4"/>
<rect x="167.923" y="86" width="7.95242" height="7" rx="1" fill="#F1F3F4"/>
<g clip-path="url(#clip3_20_167)">
<path d="M45 45C45 40.5817 48.5817 37 53 37H277C281.418 37 285 40.5817 285 45V70H45V45Z" fill="#35363A"/>
<g clip-path="url(#clip4_20_167)">
<rect x="57" y="46" width="16" height="16" fill="white"/>
<path d="M83.8301 56.3105L83.9941 57.4355L84.2344 56.4219L85.9219 50.4688H86.8711L88.5176 56.4219L88.752 57.4531L88.9336 56.3047L90.2578 50.4688H91.3887L89.3203 59H88.2949L86.5371 52.7832L86.4023 52.1328L86.2676 52.7832L84.4453 59H83.4199L81.3574 50.4688H82.4824L83.8301 56.3105ZM94.916 59.1172C94.0566 59.1172 93.3574 58.8359 92.8184 58.2734C92.2793 57.707 92.0098 56.9512 92.0098 56.0059V55.8066C92.0098 55.1777 92.1289 54.6172 92.3672 54.125C92.6094 53.6289 92.9453 53.2422 93.375 52.9648C93.8086 52.6836 94.2773 52.543 94.7812 52.543C95.6055 52.543 96.2461 52.8145 96.7031 53.3574C97.1602 53.9004 97.3887 54.6777 97.3887 55.6895V56.1406H93.0938C93.1094 56.7656 93.291 57.2715 93.6387 57.6582C93.9902 58.041 94.4355 58.2324 94.9746 58.2324C95.3574 58.2324 95.6816 58.1543 95.9473 57.998C96.2129 57.8418 96.4453 57.6348 96.6445 57.377L97.3066 57.8926C96.7754 58.709 95.9785 59.1172 94.916 59.1172ZM94.7812 53.4336C94.3438 53.4336 93.9766 53.5938 93.6797 53.9141C93.3828 54.2305 93.1992 54.6758 93.1289 55.25H96.3047V55.168C96.2734 54.6172 96.125 54.1914 95.8594 53.8906C95.5938 53.5859 95.2344 53.4336 94.7812 53.4336ZM104.016 55.9004C104.016 56.8691 103.793 57.6484 103.348 58.2383C102.902 58.8242 102.305 59.1172 101.555 59.1172C100.754 59.1172 100.135 58.834 99.6973 58.2676L99.6445 59H98.6484V50H99.7324V53.3574C100.17 52.8145 100.773 52.543 101.543 52.543C102.312 52.543 102.916 52.834 103.354 53.416C103.795 53.998 104.016 54.7949 104.016 55.8066V55.9004ZM102.932 55.7773C102.932 55.0391 102.789 54.4688 102.504 54.0664C102.219 53.6641 101.809 53.4629 101.273 53.4629C100.559 53.4629 100.045 53.7949 99.7324 54.459V57.2012C100.064 57.8652 100.582 58.1973 101.285 58.1973C101.805 58.1973 102.209 57.9961 102.498 57.5938C102.787 57.1914 102.932 56.5859 102.932 55.7773ZM109.078 57.3184C109.078 57.0254 108.967 56.7988 108.744 56.6387C108.525 56.4746 108.141 56.334 107.59 56.2168C107.043 56.0996 106.607 55.959 106.283 55.7949C105.963 55.6309 105.725 55.4355 105.568 55.209C105.416 54.9824 105.34 54.7129 105.34 54.4004C105.34 53.8809 105.559 53.4414 105.996 53.082C106.438 52.7227 107 52.543 107.684 52.543C108.402 52.543 108.984 52.7285 109.43 53.0996C109.879 53.4707 110.104 53.9453 110.104 54.5234H109.014C109.014 54.2266 108.887 53.9707 108.633 53.7559C108.383 53.541 108.066 53.4336 107.684 53.4336C107.289 53.4336 106.98 53.5195 106.758 53.6914C106.535 53.8633 106.424 54.0879 106.424 54.3652C106.424 54.627 106.527 54.8242 106.734 54.957C106.941 55.0898 107.314 55.2168 107.854 55.3379C108.396 55.459 108.836 55.6035 109.172 55.7715C109.508 55.9395 109.756 56.1426 109.916 56.3809C110.08 56.6152 110.162 56.9023 110.162 57.2422C110.162 57.8086 109.936 58.2637 109.482 58.6074C109.029 58.9473 108.441 59.1172 107.719 59.1172C107.211 59.1172 106.762 59.0273 106.371 58.8477C105.98 58.668 105.674 58.418 105.451 58.0977C105.232 57.7734 105.123 57.4238 105.123 57.0488H106.207C106.227 57.4121 106.371 57.7012 106.641 57.916C106.914 58.127 107.273 58.2324 107.719 58.2324C108.129 58.2324 108.457 58.1504 108.703 57.9863C108.953 57.8184 109.078 57.5957 109.078 57.3184ZM112.752 59H111.668V52.6602H112.752V59ZM111.58 50.9785C111.58 50.8027 111.633 50.6543 111.738 50.5332C111.848 50.4121 112.008 50.3516 112.219 50.3516C112.43 50.3516 112.59 50.4121 112.699 50.5332C112.809 50.6543 112.863 50.8027 112.863 50.9785C112.863 51.1543 112.809 51.3008 112.699 51.418C112.59 51.5352 112.43 51.5938 112.219 51.5938C112.008 51.5938 111.848 51.5352 111.738 51.418C111.633 51.3008 111.58 51.1543 111.58 50.9785ZM115.963 51.125V52.6602H117.146V53.498H115.963V57.4297C115.963 57.6836 116.016 57.875 116.121 58.0039C116.227 58.1289 116.406 58.1914 116.66 58.1914C116.785 58.1914 116.957 58.168 117.176 58.1211V59C116.891 59.0781 116.613 59.1172 116.344 59.1172C115.859 59.1172 115.494 58.9707 115.248 58.6777C115.002 58.3848 114.879 57.9688 114.879 57.4297V53.498H113.725V52.6602H114.879V51.125H115.963ZM121.049 59.1172C120.189 59.1172 119.49 58.8359 118.951 58.2734C118.412 57.707 118.143 56.9512 118.143 56.0059V55.8066C118.143 55.1777 118.262 54.6172 118.5 54.125C118.742 53.6289 119.078 53.2422 119.508 52.9648C119.941 52.6836 120.41 52.543 120.914 52.543C121.738 52.543 122.379 52.8145 122.836 53.3574C123.293 53.9004 123.521 54.6777 123.521 55.6895V56.1406H119.227C119.242 56.7656 119.424 57.2715 119.771 57.6582C120.123 58.041 120.568 58.2324 121.107 58.2324C121.49 58.2324 121.814 58.1543 122.08 57.998C122.346 57.8418 122.578 57.6348 122.777 57.377L123.439 57.8926C122.908 58.709 122.111 59.1172 121.049 59.1172ZM120.914 53.4336C120.477 53.4336 120.109 53.5938 119.812 53.9141C119.516 54.2305 119.332 54.6758 119.262 55.25H122.438V55.168C122.406 54.6172 122.258 54.1914 121.992 53.8906C121.727 53.5859 121.367 53.4336 120.914 53.4336ZM129.229 51.125V52.6602H130.412V53.498H129.229V57.4297C129.229 57.6836 129.281 57.875 129.387 58.0039C129.492 58.1289 129.672 58.1914 129.926 58.1914C130.051 58.1914 130.223 58.168 130.441 58.1211V59C130.156 59.0781 129.879 59.1172 129.609 59.1172C129.125 59.1172 128.76 58.9707 128.514 58.6777C128.268 58.3848 128.145 57.9688 128.145 57.4297V53.498H126.99V52.6602H128.145V51.125H129.229ZM132.861 59H131.777V52.6602H132.861V59ZM131.689 50.9785C131.689 50.8027 131.742 50.6543 131.848 50.5332C131.957 50.4121 132.117 50.3516 132.328 50.3516C132.539 50.3516 132.699 50.4121 132.809 50.5332C132.918 50.6543 132.973 50.8027 132.973 50.9785C132.973 51.1543 132.918 51.3008 132.809 51.418C132.699 51.5352 132.539 51.5938 132.328 51.5938C132.117 51.5938 131.957 51.5352 131.848 51.418C131.742 51.3008 131.689 51.1543 131.689 50.9785ZM136.072 51.125V52.6602H137.256V53.498H136.072V57.4297C136.072 57.6836 136.125 57.875 136.23 58.0039C136.336 58.1289 136.516 58.1914 136.77 58.1914C136.895 58.1914 137.066 58.168 137.285 58.1211V59C137 59.0781 136.723 59.1172 136.453 59.1172C135.969 59.1172 135.604 58.9707 135.357 58.6777C135.111 58.3848 134.988 57.9688 134.988 57.4297V53.498H133.834V52.6602H134.988V51.125H136.072ZM139.705 59H138.621V50H139.705V59ZM144.076 59.1172C143.217 59.1172 142.518 58.8359 141.979 58.2734C141.439 57.707 141.17 56.9512 141.17 56.0059V55.8066C141.17 55.1777 141.289 54.6172 141.527 54.125C141.77 53.6289 142.105 53.2422 142.535 52.9648C142.969 52.6836 143.438 52.543 143.941 52.543C144.766 52.543 145.406 52.8145 145.863 53.3574C146.32 53.9004 146.549 54.6777 146.549 55.6895V56.1406H142.254C142.27 56.7656 142.451 57.2715 142.799 57.6582C143.15 58.041 143.596 58.2324 144.135 58.2324C144.518 58.2324 144.842 58.1543 145.107 57.998C145.373 57.8418 145.605 57.6348 145.805 57.377L146.467 57.8926C145.936 58.709 145.139 59.1172 144.076 59.1172ZM143.941 53.4336C143.504 53.4336 143.137 53.5938 142.84 53.9141C142.543 54.2305 142.359 54.6758 142.289 55.25H145.465V55.168C145.434 54.6172 145.285 54.1914 145.02 53.8906C144.754 53.5859 144.395 53.4336 143.941 53.4336Z" fill="white"/>
</g>
<rect x="248" y="70" width="33" height="29" transform="rotate(-90 248 70)" fill="url(#paint0_linear_20_167)"/>
<path d="M265 50L268.5 53.5L272 57M272 50L265 57" stroke="white" stroke-width="1.5" stroke-linecap="round" stroke-linejoin="round"/>
<path d="M293 70H285V62C285 66.4183 288.582 70 293 70Z" fill="#35363A"/>
<g clip-path="url(#clip5_20_167)">
<rect x="297" y="46" width="16" height="16" fill="white"/>
<path d="M323.83 56.3105L323.994 57.4355L324.234 56.4219L325.922 50.4688H326.871L328.518 56.4219L328.752 57.4531L328.934 56.3047L330.258 50.4688H331.389L329.32 59H328.295L326.537 52.7832L326.402 52.1328L326.268 52.7832L324.445 59H323.42L321.357 50.4688H322.482L323.83 56.3105ZM334.916 59.1172C334.057 59.1172 333.357 58.8359 332.818 58.2734C332.279 57.707 332.01 56.9512 332.01 56.0059V55.8066C332.01 55.1777 332.129 54.6172 332.367 54.125C332.609 53.6289 332.945 53.2422 333.375 52.9648C333.809 52.6836 334.277 52.543 334.781 52.543C335.605 52.543 336.246 52.8145 336.703 53.3574C337.16 53.9004 337.389 54.6777 337.389 55.6895V56.1406H333.094C333.109 56.7656 333.291 57.2715 333.639 57.6582C333.99 58.041 334.436 58.2324 334.975 58.2324C335.357 58.2324 335.682 58.1543 335.947 57.998C336.213 57.8418 336.445 57.6348 336.645 57.377L337.307 57.8926C336.775 58.709 335.979 59.1172 334.916 59.1172ZM334.781 53.4336C334.344 53.4336 333.977 53.5938 333.68 53.9141C333.383 54.2305 333.199 54.6758 333.129 55.25H336.305V55.168C336.273 54.6172 336.125 54.1914 335.859 53.8906C335.594 53.5859 335.234 53.4336 334.781 53.4336ZM344.016 55.9004C344.016 56.8691 343.793 57.6484 343.348 58.2383C342.902 58.8242 342.305 59.1172 341.555 59.1172C340.754 59.1172 340.135 58.834 339.697 58.2676L339.645 59H338.648V50H339.732V53.3574C340.17 52.8145 340.773 52.543 341.543 52.543C342.312 52.543 342.916 52.834 343.354 53.416C343.795 53.998 344.016 54.7949 344.016 55.8066V55.9004ZM342.932 55.7773C342.932 55.0391 342.789 54.4688 342.504 54.0664C342.219 53.6641 341.809 53.4629 341.273 53.4629C340.559 53.4629 340.045 53.7949 339.732 54.459V57.2012C340.064 57.8652 340.582 58.1973 341.285 58.1973C341.805 58.1973 342.209 57.9961 342.498 57.5938C342.787 57.1914 342.932 56.5859 342.932 55.7773ZM349.078 57.3184C349.078 57.0254 348.967 56.7988 348.744 56.6387C348.525 56.4746 348.141 56.334 347.59 56.2168C347.043 56.0996 346.607 55.959 346.283 55.7949C345.963 55.6309 345.725 55.4355 345.568 55.209C345.416 54.9824 345.34 54.7129 345.34 54.4004C345.34 53.8809 345.559 53.4414 345.996 53.082C346.438 52.7227 347 52.543 347.684 52.543C348.402 52.543 348.984 52.7285 349.43 53.0996C349.879 53.4707 350.104 53.9453 350.104 54.5234H349.014C349.014 54.2266 348.887 53.9707 348.633 53.7559C348.383 53.541 348.066 53.4336 347.684 53.4336C347.289 53.4336 346.98 53.5195 346.758 53.6914C346.535 53.8633 346.424 54.0879 346.424 54.3652C346.424 54.627 346.527 54.8242 346.734 54.957C346.941 55.0898 347.314 55.2168 347.854 55.3379C348.396 55.459 348.836 55.6035 349.172 55.7715C349.508 55.9395 349.756 56.1426 349.916 56.3809C350.08 56.6152 350.162 56.9023 350.162 57.2422C350.162 57.8086 349.936 58.2637 349.482 58.6074C349.029 58.9473 348.441 59.1172 347.719 59.1172C347.211 59.1172 346.762 59.0273 346.371 58.8477C345.98 58.668 345.674 58.418 345.451 58.0977C345.232 57.7734 345.123 57.4238 345.123 57.0488H346.207C346.227 57.4121 346.371 57.7012 346.641 57.916C346.914 58.127 347.273 58.2324 347.719 58.2324C348.129 58.2324 348.457 58.1504 348.703 57.9863C348.953 57.8184 349.078 57.5957 349.078 57.3184ZM352.752 59H351.668V52.6602H352.752V59ZM351.58 50.9785C351.58 50.8027 351.633 50.6543 351.738 50.5332C351.848 50.4121 352.008 50.3516 352.219 50.3516C352.43 50.3516 352.59 50.4121 352.699 50.5332C352.809 50.6543 352.863 50.8027 352.863 50.9785C352.863 51.1543 352.809 51.3008 352.699 51.418C352.59 51.5352 352.43 51.5938 352.219 51.5938C352.008 51.5938 351.848 51.5352 351.738 51.418C351.633 51.3008 351.58 51.1543 351.58 50.9785ZM355.963 51.125V52.6602H357.146V53.498H355.963V57.4297C355.963 57.6836 356.016 57.875 356.121 58.0039C356.227 58.1289 356.406 58.1914 356.66 58.1914C356.785 58.1914 356.957 58.168 357.176 58.1211V59C356.891 59.0781 356.613 59.1172 356.344 59.1172C355.859 59.1172 355.494 58.9707 355.248 58.6777C355.002 58.3848 354.879 57.9688 354.879 57.4297V53.498H353.725V52.6602H354.879V51.125H355.963ZM361.049 59.1172C360.189 59.1172 359.49 58.8359 358.951 58.2734C358.412 57.707 358.143 56.9512 358.143 56.0059V55.8066C358.143 55.1777 358.262 54.6172 358.5 54.125C358.742 53.6289 359.078 53.2422 359.508 52.9648C359.941 52.6836 360.41 52.543 360.914 52.543C361.738 52.543 362.379 52.8145 362.836 53.3574C363.293 53.9004 363.521 54.6777 363.521 55.6895V56.1406H359.227C359.242 56.7656 359.424 57.2715 359.771 57.6582C360.123 58.041 360.568 58.2324 361.107 58.2324C361.49 58.2324 361.814 58.1543 362.08 57.998C362.346 57.8418 362.578 57.6348 362.777 57.377L363.439 57.8926C362.908 58.709 362.111 59.1172 361.049 59.1172ZM360.914 53.4336C360.477 53.4336 360.109 53.5938 359.812 53.9141C359.516 54.2305 359.332 54.6758 359.262 55.25H362.438V55.168C362.406 54.6172 362.258 54.1914 361.992 53.8906C361.727 53.5859 361.367 53.4336 360.914 53.4336ZM369.229 51.125V52.6602H370.412V53.498H369.229V57.4297C369.229 57.6836 369.281 57.875 369.387 58.0039C369.492 58.1289 369.672 58.1914 369.926 58.1914C370.051 58.1914 370.223 58.168 370.441 58.1211V59C370.156 59.0781 369.879 59.1172 369.609 59.1172C369.125 59.1172 368.76 58.9707 368.514 58.6777C368.268 58.3848 368.145 57.9688 368.145 57.4297V53.498H366.99V52.6602H368.145V51.125H369.229ZM372.861 59H371.777V52.6602H372.861V59ZM371.689 50.9785C371.689 50.8027 371.742 50.6543 371.848 50.5332C371.957 50.4121 372.117 50.3516 372.328 50.3516C372.539 50.3516 372.699 50.4121 372.809 50.5332C372.918 50.6543 372.973 50.8027 372.973 50.9785C372.973 51.1543 372.918 51.3008 372.809 51.418C372.699 51.5352 372.539 51.5938 372.328 51.5938C372.117 51.5938 371.957 51.5352 371.848 51.418C371.742 51.3008 371.689 51.1543 371.689 50.9785ZM376.072 51.125V52.6602H377.256V53.498H376.072V57.4297C376.072 57.6836 376.125 57.875 376.23 58.0039C376.336 58.1289 376.516 58.1914 376.77 58.1914C376.895 58.1914 377.066 58.168 377.285 58.1211V59C377 59.0781 376.723 59.1172 376.453 59.1172C375.969 59.1172 375.604 58.9707 375.357 58.6777C375.111 58.3848 374.988 57.9688 374.988 57.4297V53.498H373.834V52.6602H374.988V51.125H376.072ZM379.705 59H378.621V50H379.705V59ZM384.076 59.1172C383.217 59.1172 382.518 58.8359 381.979 58.2734C381.439 57.707 381.17 56.9512 381.17 56.0059V55.8066C381.17 55.1777 381.289 54.6172 381.527 54.125C381.77 53.6289 382.105 53.2422 382.535 52.9648C382.969 52.6836 383.438 52.543 383.941 52.543C384.766 52.543 385.406 52.8145 385.863 53.3574C386.32 53.9004 386.549 54.6777 386.549 55.6895V56.1406H382.254C382.27 56.7656 382.451 57.2715 382.799 57.6582C383.15 58.041 383.596 58.2324 384.135 58.2324C384.518 58.2324 384.842 58.1543 385.107 57.998C385.373 57.8418 385.605 57.6348 385.805 57.377L386.467 57.8926C385.936 58.709 385.139 59.1172 384.076 59.1172ZM383.941 53.4336C383.504 53.4336 383.137 53.5938 382.84 53.9141C382.543 54.2305 382.359 54.6758 382.289 55.25H385.465V55.168C385.434 54.6172 385.285 54.1914 385.02 53.8906C384.754 53.5859 384.395 53.4336 383.941 53.4336Z" fill="white"/>
</g>
<path d="M505 50L508.5 53.5L512 57M512 50L505 57" stroke="white" stroke-width="1.5" stroke-linecap="round" stroke-linejoin="round"/>
<g clip-path="url(#clip6_20_167)">
<path d="M535.896 53.5H545.883M540.889 48V59" stroke="#BEC1C6" stroke-width="2" stroke-linecap="round"/>
</g>
</g>
<path d="M905 44.5H914" stroke="#727679"/>
<path d="M992.5 40L1001.5 49" stroke="#727679"/>
<path d="M1001.5 40L992.5 49" stroke="#727679"/>
<rect x="948.5" y="40.5" width="8" height="8" stroke="#727679"/>
</g>
<defs>
<filter id="filter0_d_20_167" x="0" y="0" width="1065" height="808" filterUnits="userSpaceOnUse" color-interpolation-filters="sRGB">
<feFlood flood-opacity="0" result="BackgroundImageFix"/>
<feColorMatrix in="SourceAlpha" type="matrix" values="0 0 0 0 0 0 0 0 0 0 0 0 0 0 0 0 0 0 127 0" result="hardAlpha"/>
<feOffset dy="15"/>
<feGaussianBlur stdDeviation="22.5"/>
<feColorMatrix type="matrix" values="0 0 0 0 0 0 0 0 0 0 0 0 0 0 0 0 0 0 0.45 0"/>
<feBlend mode="normal" in2="BackgroundImageFix" result="effect1_dropShadow_20_167"/>
<feBlend mode="normal" in="SourceGraphic" in2="effect1_dropShadow_20_167" result="shape"/>
</filter>
<linearGradient id="paint0_linear_20_167" x1="264.5" y1="70" x2="264.5" y2="99" gradientUnits="userSpaceOnUse">
<stop stop-color="#35363A" stop-opacity="0"/>
<stop offset="0.341368" stop-color="#35363A"/>
</linearGradient>
<clipPath id="clip0_20_167">
<rect width="975" height="718" fill="white" transform="translate(45 30)"/>
</clipPath>
<clipPath id="clip1_20_167">
<rect width="77" height="16" fill="white" transform="translate(126 114)"/>
</clipPath>
<clipPath id="clip2_20_167">
<rect width="16" height="16" fill="white" transform="translate(909 80)"/>
</clipPath>
<clipPath id="clip3_20_167">
<rect width="512" height="40" fill="white" transform="translate(45 30)"/>
</clipPath>
<clipPath id="clip4_20_167">
<rect width="90" height="16" fill="white" transform="translate(57 46)"/>
</clipPath>
<clipPath id="clip5_20_167">
<rect width="90" height="16" fill="white" transform="translate(297 46)"/>
</clipPath>
<clipPath id="clip6_20_167">
<rect width="32" height="40" fill="white" transform="translate(525 30)"/>
</clipPath>
</defs>
</svg>
